<svg xmlns="http://www.w3.org/2000/svg" viewBox="0 0 512 512" role="img" aria-labelledby="title desc">
  <title id="title">omicverse-tutorials sticker</title>
  <desc id="desc">OmicVerse repository hex sticker for omicverse-tutorials.</desc>
  <defs>
    <linearGradient id="bg" x1="112" y1="90" x2="398" y2="430" gradientUnits="userSpaceOnUse">
      <stop offset="0" stop-color="#050706"/>
      <stop offset=".58" stop-color="#020403"/>
      <stop offset="1" stop-color="#000000"/>
    </linearGradient>
  </defs>
  <polygon points="256,34 450,146 450,368 256,480 62,368 62,146" fill="#000000" opacity=".34"/>
  <polygon points="256,22 458,139 458,373 256,490 54,373 54,139" fill="url(#bg)" stroke="#0B0F0A" stroke-width="19" stroke-linejoin="round"/>
  <polygon points="256,22 458,139 458,373 256,490 54,373 54,139" fill="none" stroke="#E8FFE0" stroke-width="12" stroke-linejoin="round"/>
  <g opacity=".22" stroke="#37C96B" stroke-width="2.2">
    <path d="M112 166h288M100 222h312M100 278h312M112 334h288"/>
    <path d="M152 126v236M204 104v274M256 96v286M308 104v274M360 126v236"/>
  </g>
  
  <g id="motif">
    <rect x="122" y="144" width="240" height="158" rx="12" fill="#FFFFFF" opacity="0.22"/>
    <path d="M148 274c38-72 86-108 144-108 32 0 58 10 77 30" fill="none" stroke="#34C759" stroke-width="9" stroke-linecap="round"/>
    <circle cx="148" cy="274" r="17" fill="#FFD43B" stroke="#FFFFFF" stroke-width="5"/>
    <circle cx="220" cy="198" r="17" fill="#00A6D6" stroke="#FFFFFF" stroke-width="5"/>
    <circle cx="298" cy="169" r="17" fill="#34C759" stroke="#FFFFFF" stroke-width="5"/>
    <path d="M346 182l36 14-36 14z" fill="#FF6B5F"/>
    <path d="M158 326h138M158 348h104" stroke="#FFFFFF" stroke-width="8" stroke-linecap="round" opacity=".9"/>
  </g>
  <path id="label" d="M302.58,374.47 L304.60,377.96 L308.66,375.62 L310.28,378.43 L306.22,380.78 L309.24,386.00 Q309.73,386.86 310.25,386.96 Q310.77,387.07 311.78,386.48 L313.80,385.32 L315.43,388.13 L312.05,390.08 Q309.72,391.43 308.19,391.02 Q306.65,390.60 305.30,388.27 L302.29,383.05 L300.33,384.18 L298.71,381.37 L300.67,380.23 L298.65,376.74 L302.58,374.47 Z M315.27,381.83 L310.93,374.31 L314.89,372.02 L315.60,373.25 Q316.18,374.25 317.04,375.77 Q317.90,377.29 318.19,377.79 Q319.05,379.28 319.51,379.89 Q319.96,380.50 320.32,380.69 Q320.78,380.93 321.29,380.92 Q321.81,380.90 322.31,380.61 Q323.54,379.90 323.70,378.55 Q323.86,377.19 322.89,375.51 L319.38,369.43 L323.31,367.16 L330.42,379.47 L326.49,381.75 L325.46,379.97 Q325.19,381.56 324.49,382.64 Q323.79,383.73 322.59,384.42 Q320.46,385.65 318.59,384.99 Q316.72,384.32 315.27,381.83 Z M329.37,359.00 L331.39,362.49 L335.45,360.15 L337.08,362.96 L333.02,365.31 L336.03,370.53 Q336.53,371.39 337.04,371.49 Q337.56,371.60 338.57,371.01 L340.60,369.85 L342.22,372.66 L338.84,374.61 Q336.51,375.96 334.98,375.55 Q333.45,375.13 332.10,372.80 L329.08,367.58 L327.12,368.71 L325.50,365.90 L327.46,364.77 L325.44,361.27 L329.37,359.00 Z M345.17,357.90 Q343.86,358.65 343.72,359.99 Q343.58,361.32 344.60,363.09 Q345.62,364.86 346.85,365.41 Q348.08,365.95 349.39,365.20 Q350.67,364.45 350.81,363.12 Q350.95,361.79 349.93,360.02 Q348.91,358.25 347.68,357.70 Q346.46,357.15 345.17,357.90 Z M343.55,355.08 Q346.72,353.25 349.50,353.93 Q352.28,354.62 354.03,357.65 Q355.78,360.68 354.99,363.43 Q354.19,366.18 351.01,368.01 Q347.82,369.85 345.04,369.18 Q342.25,368.50 340.50,365.46 Q338.74,362.43 339.55,359.68 Q340.36,356.92 343.55,355.08 Z M364.41,347.90 Q363.76,347.96 363.18,348.14 Q362.60,348.32 362.08,348.62 Q360.57,349.49 360.31,350.94 Q360.05,352.39 361.10,354.20 L364.37,359.87 L360.44,362.14 L353.33,349.83 L357.26,347.56 L358.43,349.58 Q358.49,347.93 359.15,346.81 Q359.82,345.69 361.19,344.89 Q361.39,344.78 361.63,344.67 Q361.87,344.55 362.34,344.35 L364.41,347.90 Z M364.43,343.42 L368.37,341.15 L375.48,353.46 L371.54,355.73 L364.43,343.42 Z M361.67,338.62 L365.60,336.35 L367.45,339.56 L363.52,341.83 L361.67,338.62 Z M381.58,342.55 Q380.35,343.26 379.97,344.04 Q379.59,344.81 380.06,345.63 Q380.49,346.37 381.23,346.51 Q381.98,346.64 382.87,346.13 Q383.98,345.49 384.28,344.25 Q384.58,343.02 383.89,341.82 L383.63,341.37 L381.58,342.55 Z M386.74,337.59 L390.79,344.62 L386.83,346.91 L385.77,345.08 Q385.63,346.66 384.93,347.75 Q384.24,348.83 382.82,349.65 Q380.91,350.75 379.07,350.33 Q377.23,349.90 376.20,348.12 Q374.95,345.95 375.86,344.08 Q376.76,342.21 379.95,340.36 L382.27,339.02 L382.10,338.72 Q381.56,337.78 380.57,337.78 Q379.58,337.76 378.02,338.67 Q376.76,339.40 375.81,340.28 Q374.87,341.16 374.23,342.21 L372.49,339.21 Q373.58,338.16 374.76,337.27 Q375.95,336.38 377.22,335.64 Q380.56,333.72 382.79,334.18 Q385.03,334.63 386.74,337.59 Z M384.58,325.39 L388.51,323.12 L398.39,340.23 L394.46,342.50 L384.58,325.39 Z M404.90,320.56 L406.63,323.55 Q405.06,323.76 403.73,324.17 Q402.41,324.59 401.36,325.19 Q400.24,325.84 399.85,326.43 Q399.48,327.03 399.81,327.61 Q400.09,328.08 400.64,328.10 Q401.20,328.11 402.34,327.62 L403.09,327.32 Q406.33,325.95 407.88,326.23 Q409.43,326.51 410.52,328.39 Q411.66,330.36 410.78,332.19 Q409.90,334.01 407.02,335.68 Q405.80,336.38 404.38,336.94 Q402.97,337.50 401.37,337.91 L399.65,334.92 Q401.15,334.81 402.55,334.38 Q403.96,333.95 405.23,333.22 Q406.39,332.55 406.79,331.90 Q407.19,331.24 406.82,330.61 Q406.52,330.08 405.97,330.06 Q405.42,330.03 404.14,330.58 L403.39,330.89 Q400.57,332.08 399.00,331.80 Q397.43,331.52 396.39,329.70 Q395.26,327.75 396.05,326.03 Q396.85,324.31 399.62,322.71 Q400.71,322.08 402.00,321.55 Q403.29,321.02 404.90,320.56 Z" fill="#FFFFFF"/>
</svg>
